<?xml version="1.0" standalone="no"?>
<!DOCTYPE svg PUBLIC "-//W3C//DTD SVG 20010904//EN"
 "http://www.w3.org/TR/2001/REC-SVG-20010904/DTD/svg10.dtd">
<svg version="1.0" xmlns="http://www.w3.org/2000/svg"
 width="260.000000pt" height="260.000000pt" viewBox="0 0 260.000000 260.000000"
 preserveAspectRatio="xMidYMid meet">
<metadata>
Created by potrace 1.11, written by Peter Selinger 2001-2013
</metadata>
<g transform="translate(0.000000,260.000000) scale(0.100000,-0.100000)"
fill="#000000" stroke="none">
<path d="M1125 2494 c-209 -50 -319 -88 -420 -147 -46 -27 -100 -61 -105 -67
-3 -3 -23 -18 -45 -35 -117 -86 -271 -277 -335 -415 -96 -204 -124 -346 -117
-575 6 -194 36 -318 116 -485 22 -45 26 -52 70 -125 63 -102 153 -197 311
-328 38 -32 104 -67 110 -60 4 4 23 36 41 71 58 107 63 116 87 149 12 17 22
35 22 41 0 25 26 31 56 14 83 -51 257 -92 385 -92 89 0 219 23 293 51 72 28
155 70 167 86 7 7 18 13 26 13 19 0 223 204 223 223 0 8 6 19 13 26 8 6 25 34
40 63 129 259 129 549 0 793 -75 143 -219 289 -353 361 -187 99 -398 128 -597
81 -76 -18 -217 -72 -241 -92 -3 -3 28 -65 48 -95 5 -8 34 -59 64 -113 l55
-97 -25 -18 c-79 -55 -145 -137 -189 -234 -31 -69 -43 -201 -26 -291 15 -82
67 -182 126 -243 61 -64 103 -93 186 -130 60 -27 72 -29 194 -29 130 0 130 0
206 37 41 21 94 54 118 74 95 82 169 219 179 332 l5 62 -257 0 -257 0 3 -82 3
-83 143 -5 143 -5 -48 -51 c-27 -28 -73 -64 -103 -79 -47 -24 -67 -28 -140
-28 -69 0 -93 4 -130 23 -52 27 -103 61 -109 74 -2 5 -11 16 -20 25 -9 9 -27
37 -41 61 -22 40 -25 57 -25 150 0 98 2 108 29 154 81 135 206 196 355 173 72
-10 125 -40 187 -104 l51 -53 91 0 c83 0 110 8 82 25 -5 3 -10 13 -10 20 0 26
-59 108 -115 161 -100 93 -217 137 -359 133 l-79 -2 -19 34 c-10 19 -27 48
-38 64 -28 45 -25 52 30 64 115 25 307 0 406 -52 23 -12 58 -30 78 -41 52 -26
167 -141 209 -207 146 -230 143 -519 -7 -748 -201 -306 -621 -393 -935 -194
-66 42 -181 157 -207 209 -11 20 -29 55 -41 78 -32 61 -63 203 -63 287 0 116
41 262 98 349 41 63 47 71 75 101 15 16 26 33 24 37 -2 4 -23 40 -46 80 l-43
73 -42 -43 c-111 -115 -190 -263 -225 -421 -22 -101 -27 -230 -12 -302 5 -22
14 -63 19 -91 12 -58 75 -199 116 -259 15 -22 54 -70 87 -107 l60 -68 -36 -65
c-20 -36 -40 -67 -45 -70 -22 -14 -184 176 -243 286 -94 172 -132 316 -132
499 0 173 34 308 120 475 143 280 408 473 738 536 424 81 891 -157 1083 -552
70 -144 114 -321 114 -462 0 -87 -33 -273 -59 -330 -12 -25 -21 -49 -21 -53 0
-4 -12 -32 -27 -63 -141 -293 -422 -506 -746 -562 -60 -10 -140 -19 -176 -19
-86 0 -243 26 -303 50 l-46 18 -47 -80 c-25 -44 -45 -81 -43 -82 12 -7 156
-49 218 -63 106 -25 336 -25 445 1 161 37 342 109 429 170 288 201 452 444
532 786 92 398 -85 888 -419 1158 -64 51 -91 70 -172 119 -69 42 -181 87 -300
120 -78 22 -115 26 -270 28 -99 2 -189 2 -200 -1z"/>
</g>
</svg>
